{
  "accessors": [
    {
      "bufferView": 2,
      "componentType": 5126,
      "count": 25656,
      "max": [
        6.584893703460693,
        9.588262557983398,
        7.77983283996582
      ],
      "min": [
        -2.0731444358825684,
        -0.07706356048583984,
        -7.779832363128662
      ],
      "type": "VEC3"
    },
    {
      "bufferView": 2,
      "byteOffset": 307872,
      "componentType": 5126,
      "count": 25656,
      "max": [
        0.9999709725379944,
        0.9999781250953674,
        1.0
      ],
      "min": [
        -0.99969083070755,
        -0.9999691843986511,
        -1.0
      ],
      "type": "VEC3"
    },
    {
      "bufferView": 1,
      "componentType": 5126,
      "count": 25656,
      "max": [
        0.9935312271118164,
        0.99234539270401
      ],
      "min": [
        0.006976425647735596,
        0.011021792888641357
      ],
      "type": "VEC2"
    },
    {
      "bufferView": 1,
      "byteOffset": 205248,
      "componentType": 5126,
      "count": 25656,
      "max": [
        0.9935312271118164,
        0.99234539270401
      ],
      "min": [
        0.006976425647735596,
        0.011021792888641357
      ],
      "type": "VEC2"
    },
    {
      "bufferView": 1,
      "byteOffset": 410496,
      "componentType": 5126,
      "count": 25656,
      "max": [
        0.9935312271118164,
        0.99234539270401
      ],
      "min": [
        0.006976425647735596,
        0.011021792888641357
      ],
      "type": "VEC2"
    },
    {
      "bufferView": 0,
      "componentType": 5125,
      "count": 129357,
      "type": "SCALAR"
    }
  ],
  "asset": {
    "extras": {
      "author": "umkhero (https://sketchfab.com/umkhero)",
      "license": "CC-BY-4.0 (http://creativecommons.org/licenses/by/4.0/)",
      "source": "https://sketchfab.com/3d-models/xbox-controller-32d17951703b4e05abed11a1c65f5909",
      "title": "Xbox Controller"
    },
    "generator": "Sketchfab-12.65.0",
    "version": "2.0"
  },
  "bufferViews": [
    {
      "buffer": 0,
      "byteLength": 517428,
      "name": "floatBufferViews",
      "target": 34963
    },
    {
      "buffer": 0,
      "byteLength": 615744,
      "byteOffset": 517428,
      "byteStride": 8,
      "name": "floatBufferViews",
      "target": 34962
    },
    {
      "buffer": 0,
      "byteLength": 615744,
      "byteOffset": 1133172,
      "byteStride": 12,
      "name": "floatBufferViews",
      "target": 34962
    }
  ],
  "buffers": [
    {
      "byteLength": 1748916,
      "uri": "scene.bin"
    }
  ],
  "extensionsRequired": [
    "KHR_materials_pbrSpecularGlossiness"
  ],
  "extensionsUsed": [
    "KHR_materials_pbrSpecularGlossiness"
  ],
  "images": [
    {
      "uri": "textures/material_diffuse.png"
    },
    {
      "uri": "textures/material_specularGlossiness.png"
    }
  ],
  "materials": [
    {
      "doubleSided": true,
      "extensions": {
        "KHR_materials_pbrSpecularGlossiness": {
          "diffuseFactor": [
            1.0,
            1.0,
            1.0,
            1.0
          ],
          "diffuseTexture": {
            "index": 0
          },
          "glossinessFactor": 1.0,
          "specularFactor": [
            1.0,
            1.0,
            1.0
          ],
          "specularGlossinessTexture": {
            "index": 1
          }
        }
      },
      "name": "material"
    }
  ],
  "meshes": [
    {
      "name": "Object_0",
      "primitives": [
        {
          "attributes": {
            "NORMAL": 1,
            "POSITION": 0,
            "TEXCOORD_0": 2,
            "TEXCOORD_1": 3,
            "TEXCOORD_2": 4
          },
          "indices": 5,
          "material": 0,
          "mode": 4
        }
      ]
    }
  ],
  "nodes": [
    {
      "children": [
        1
      ],
      "matrix": [
        1.0,
        0.0,
        0.0,
        0.0,
        0.0,
        2.220446049250313e-16,
        -1.0,
        0.0,
        0.0,
        1.0,
        2.220446049250313e-16,
        0.0,
        0.0,
        0.0,
        0.0,
        1.0
      ],
      "name": "Sketchfab_model"
    },
    {
      "children": [
        2
      ],
      "name": "root"
    },
    {
      "children": [
        3
      ],
      "matrix": [
        1.0,
        0.0,
        0.0,
        0.0,
        0.0,
        2.220446049250313e-16,
        1.0,
        0.0,
        0.0,
        -1.0,
        2.220446049250313e-16,
        0.0,
        0.0,
        0.0,
        0.0,
        1.0
      ],
      "name": "GLTF_SceneRootNode"
    },
    {
      "children": [
        4
      ],
      "name": "root_1"
    },
    {
      "children": [
        5
      ],
      "matrix": [
        2.991925949508102e-10,
        -0.02713430121175692,
        0.03981035887199398,
        0.0,
        -9.701929364108348e-10,
        0.03981034963719872,
        0.027134294917422405,
        0.0,
        -0.048178147524595254,
        -9.701929364108348e-10,
        -2.9919253624490465e-10,
        0.0,
        0.02484937198460102,
        0.004096786491572857,
        0.214029461145401,
        1.0
      ],
      "name": "node_id62_0"
    },
    {
      "mesh": 0,
      "name": "Object_5"
    }
  ],
  "samplers": [
    {
      "magFilter": 9729,
      "minFilter": 9987,
      "wrapS": 10497,
      "wrapT": 10497
    }
  ],
  "scene": 0,
  "scenes": [
    {
      "name": "Sketchfab_Scene",
      "nodes": [
        0
      ]
    }
  ],
  "textures": [
    {
      "sampler": 0,
      "source": 0
    },
    {
      "sampler": 0,
      "source": 1
    }
  ]
}
